<?xml version="1.0"?>
<svg xmlns="http://www.w3.org/2000/svg" xmlns:xlink="http://www.w3.org/1999/xlink" xmlns:svgjs="http://svgjs.com/svgjs" version="1.1" width="512" height="512" x="0" y="0" viewBox="0 0 512 512" style="enable-background:new 0 0 512 512" xml:space="preserve" class=""><g><g xmlns="http://www.w3.org/2000/svg"><path d="M104,376a24,24,0,1,0,24,24A24.027,24.027,0,0,0,104,376Zm0,32a8,8,0,1,1,8-8A8.009,8.009,0,0,1,104,408Z" fill="#ffffff" data-original="#000000" style="" class=""/><path d="M408,376a24,24,0,1,0,24,24A24.027,24.027,0,0,0,408,376Zm0,32a8,8,0,1,1,8-8A8.009,8.009,0,0,1,408,408Z" fill="#ffffff" data-original="#000000" style="" class=""/><path d="M502.73,267.67l-72-112A8,8,0,0,0,424,152H328V108a28.031,28.031,0,0,0-28-28H36A28.031,28.031,0,0,0,8,108V400a8,8,0,0,0,8,8H48.58a55.994,55.994,0,0,0,110.84,0H352.58a55.994,55.994,0,0,0,110.84,0H496a8,8,0,0,0,8-8V272A8.018,8.018,0,0,0,502.73,267.67ZM104,440a40,40,0,1,1,40-40A40.04,40.04,0,0,1,104,440Zm208-48H159.42a55.994,55.994,0,0,0-110.84,0H24V312H312Zm0-96H24V108A12.01,12.01,0,0,1,36,96H300a12.01,12.01,0,0,1,12,12ZM435.06,192l46.29,72H368V192ZM408,440a40,40,0,1,1,40-40A40.04,40.04,0,0,1,408,440Zm80-112H472a8,8,0,0,1,0-16h16Zm0-32H472a24,24,0,0,0,0,48h16v48H463.42a55.994,55.994,0,0,0-110.84,0H328V168h91.63l5.15,8H360a8,8,0,0,0-8,8v88a8,8,0,0,0,8,8H488Z" fill="#ffffff" data-original="#000000" style="" class=""/><path d="M384,296H360a8,8,0,0,0,0,16h24a8,8,0,0,0,0-16Z" fill="#ffffff" data-original="#000000" style="" class=""/><path d="M216,344h64a8,8,0,0,0,0-16H216a8,8,0,0,0,0,16Z" fill="#ffffff" data-original="#000000" style="" class=""/><path d="M280,352H256a8,8,0,0,0,0,16h24a8,8,0,0,0,0-16Z" fill="#ffffff" data-original="#000000" style="" class=""/></g></g></svg>
