<?xml version="1.0"?>
<svg xmlns="http://www.w3.org/2000/svg" xmlns:xlink="http://www.w3.org/1999/xlink" xmlns:svgjs="http://svgjs.com/svgjs" version="1.1" width="512" height="512" x="0" y="0" viewBox="0 0 259.487 259.487" style="enable-background:new 0 0 512 512" xml:space="preserve" class=""><g>
<g xmlns="http://www.w3.org/2000/svg">
	<path style="" d="M196.683,39.45c0.582-2.063,3.358-4.163,5.501-4.163h46.045c4.142,0,7.5-3.357,7.5-7.5   s-3.358-7.5-7.5-7.5h-46.045c-8.79,0-17.547,6.626-19.936,15.085l-12.439,44.023c-1.422-0.396-2.92-0.625-4.478-0.625H16.565   c-4.735,0-9.23,1.964-12.332,5.388c-3.102,3.424-4.615,8.09-4.149,12.8l6.938,70.328c0.925,9.373,9.027,16.715,18.446,16.715   h115.465c8.827,0,17.546-6.675,19.85-15.195l14.466-53.494L196.683,39.45z M146.302,164.891c-0.55,2.036-3.261,4.11-5.37,4.11   H25.467c-1.647,0-3.356-1.549-3.518-3.188L15.01,95.485c-0.052-0.52,0.065-0.954,0.337-1.254c0.273-0.301,0.693-0.46,1.217-0.46   h148.767c0.073,0,0.137,0.003,0.193,0.007c-0.01,0.056-0.025,0.118-0.044,0.188L146.302,164.891z" fill="#333366" data-original="#000002" class=""/>
	<path style="" d="M47.36,192.543c-12.864,0-23.329,10.465-23.329,23.328c0,12.863,10.465,23.328,23.329,23.328   c12.863,0,23.328-10.465,23.328-23.328C70.688,203.008,60.223,192.543,47.36,192.543z M47.36,224.199   c-4.593,0-8.329-3.736-8.329-8.328c0-4.592,3.736-8.328,8.329-8.328c4.592,0,8.328,3.736,8.328,8.328   C55.688,220.463,51.952,224.199,47.36,224.199z" fill="#333366" data-original="#000002" class=""/>
	<path style="" d="M121.328,192.543c-12.863,0-23.328,10.465-23.328,23.328c0,12.863,10.465,23.328,23.328,23.328   s23.328-10.465,23.328-23.328C144.656,203.008,134.192,192.543,121.328,192.543z M121.328,224.199   c-4.592,0-8.328-3.736-8.328-8.328c0-4.592,3.736-8.328,8.328-8.328s8.328,3.736,8.328,8.328   C129.656,220.463,125.921,224.199,121.328,224.199z" fill="#333366" data-original="#000002" class=""/>
	<path style="" d="M254.487,81.271h-54.143c-2.761,0-5,2.238-5,5c0,2.762,2.239,5,5,5h54.143c2.761,0,5-2.238,5-5   C259.487,83.509,257.248,81.271,254.487,81.271z" fill="#333366" data-original="#000002" class=""/>
	<path style="" d="M239.476,104.545h-48.137c-2.761,0-5,2.238-5,5c0,2.762,2.239,5,5,5h48.137c2.761,0,5-2.238,5-5   C244.476,106.783,242.237,104.545,239.476,104.545z" fill="#333366" data-original="#000002" class=""/>
	<path style="" d="M226.467,127.82h-41.13c-2.761,0-5,2.238-5,5s2.239,5,5,5h41.13c2.761,0,5-2.238,5-5   S229.228,127.82,226.467,127.82z" fill="#333366" data-original="#000002" class=""/>
</g>
<g xmlns="http://www.w3.org/2000/svg">
</g>
<g xmlns="http://www.w3.org/2000/svg">
</g>
<g xmlns="http://www.w3.org/2000/svg">
</g>
<g xmlns="http://www.w3.org/2000/svg">
</g>
<g xmlns="http://www.w3.org/2000/svg">
</g>
<g xmlns="http://www.w3.org/2000/svg">
</g>
<g xmlns="http://www.w3.org/2000/svg">
</g>
<g xmlns="http://www.w3.org/2000/svg">
</g>
<g xmlns="http://www.w3.org/2000/svg">
</g>
<g xmlns="http://www.w3.org/2000/svg">
</g>
<g xmlns="http://www.w3.org/2000/svg">
</g>
<g xmlns="http://www.w3.org/2000/svg">
</g>
<g xmlns="http://www.w3.org/2000/svg">
</g>
<g xmlns="http://www.w3.org/2000/svg">
</g>
<g xmlns="http://www.w3.org/2000/svg">
</g>
</g></svg>
